<svg id="visual" viewBox="0 0 900 600" width="900" height="600" xmlns="http://www.w3.org/2000/svg" xmlns:xlink="http://www.w3.org/1999/xlink" version="1.1"><rect x="0" y="0" width="900" height="600" fill="#ffffff"></rect><defs><linearGradient id="grad1_0" x1="33.3%" y1="100%" x2="100%" y2="0%"><stop offset="20%" stop-color="#ffffff" stop-opacity="1"></stop><stop offset="80%" stop-color="#ffffff" stop-opacity="1"></stop></linearGradient></defs><defs><linearGradient id="grad2_0" x1="0%" y1="100%" x2="66.7%" y2="0%"><stop offset="20%" stop-color="#ffffff" stop-opacity="1"></stop><stop offset="80%" stop-color="#ffffff" stop-opacity="1"></stop></linearGradient></defs><g transform="translate(900, 600)"><path d="M-459.7 0C-442.5 -27.7 -425.3 -55.4 -413.9 -82.3C-402.5 -109.3 -396.8 -135.5 -388 -160.7C-379.2 -186 -367.3 -210.2 -356.7 -238.3C-346.1 -266.4 -336.7 -298.3 -314.7 -314.7C-292.6 -331 -257.9 -331.7 -234.5 -350.9C-211 -370.1 -199 -407.7 -175.9 -424.7C-152.8 -441.7 -118.8 -438 -87.6 -440.4C-56.4 -442.8 -28.2 -451.2 0 -459.7L0 0Z" fill="#dddddd"></path></g><g transform="translate(0, 0)"><path d="M459.7 0C457.7 29.5 455.7 59.1 450.9 89.7C446 120.3 438.3 152 413 171.1C387.6 190.1 344.6 196.6 326.8 218.3C308.9 240.1 316.1 277.1 308.3 308.3C300.5 339.5 277.6 364.8 247.2 370C216.9 375.2 179.1 360.2 151.5 365.9C123.9 371.5 106.5 397.8 82.9 416.8C59.3 435.9 29.7 447.8 0 459.7L0 0Z" fill="#dddddd"></path></g></svg>